<?xml version="1.0" encoding="utf-8"?>
<!-- Generator: Adobe Illustrator 20.1.0, SVG Export Plug-In . SVG Version: 6.00 Build 0)  -->
<svg version="1.1" id="Layer_1" xmlns="http://www.w3.org/2000/svg" xmlns:xlink="http://www.w3.org/1999/xlink" x="0px" y="0px"
	 viewBox="0 0 579.906 100" enable-background="new 0 0 579.906 100" xml:space="preserve">
<g>
	<path fill="#292115" d="M529.906,0c-27.61,0-50,22.383-50,50s22.39,50,50,50c27.617,0,50-22.383,50-50S557.524,0,529.906,0z
		 M559.749,66.803V33.068l-10.047,36.728l-13.478,4.067l-5.892-17.078l-4.557-13.367l-4.555-13.038v12.979v13.432v21.382
		l-21.746,6.536V56.791V43.359V14.265l33.453,5.445l11.183,32.961l8.298-30.06l16.097,2.535v38.997L559.749,66.803z"/>
</g>
<g>
	<g>
		<g>
			<path fill="#292115" d="M210.6,38.247c0.077-10.074-7.416-16.842-16.417-16.842h-42.349v55.541h14.331V55.879h14.714
				l12.549,20.861h15.648l-12.987-21.756C203.982,55.084,210.592,47.61,210.6,38.247z M188.428,48.392h-21.95V30.583h22.339
				c4.188-0.063,7.738,4.192,7.604,9.224C196.333,44.798,192.642,48.672,188.428,48.392z M102.41,69.42h35.086v7.525H88.109V21.234
				l0.229,0.171h48.572v8.274h-34.4v14.343h27.109v8.055H102.41V69.42z M53.116,21.234h18.868v55.439H57.33V31.306L40.696,76.74
				H26.724L8.631,32.591V76.74H0V21.234h18.633l18.394,44.774L53.116,21.234z M285.142,38.247
				c0.088-10.074-7.41-16.842-16.352-16.842h-42.435v55.541h14.29V55.879h14.781l12.58,20.861h15.621l-13.016-21.756
				C278.53,55.084,285.099,47.61,285.142,38.247z M263.007,48.392h-21.979V30.583h22.324c4.21-0.063,7.791,4.192,7.588,9.224
				C270.856,44.798,267.208,48.672,263.007,48.392z M316.761,69.42h35.052v7.525h-49.323V21.234l0.203,0.171h48.564v8.274h-34.368
				v14.343h27.095v8.055h-27.223V69.42z M383.188,68.792h31.881v7.948h-46.1V21.405h14.219V68.792z M471.571,68.792v7.948h-46.088
				V21.405h14.2v47.387H471.571z"/>
		</g>
	</g>
</g>
</svg>
