<?xml version="1.0" encoding="utf-8"?>
<!-- Generator: Adobe Illustrator 20.1.0, SVG Export Plug-In . SVG Version: 6.00 Build 0)  -->
<svg version="1.1" id="Layer_1" xmlns="http://www.w3.org/2000/svg" xmlns:xlink="http://www.w3.org/1999/xlink" x="0px" y="0px"
	 viewBox="0 0 490.4 105.1" style="enable-background:new 0 0 490.4 105.1;" xml:space="preserve">
<style type="text/css">
	.st0{fill:#261F16;}
</style>
<g>
	<path class="st0" d="M490.4,0h-65.9c-17.9,0-30.7,22.3-17.2,38c0,0.6,34,37.9,34,37.9H397h-0.4l-6.6,29h67
		c18.4,0,31.3-20.6,17.4-39.5L443.1,29h40.3L490.4,0z"/>
	<path class="st0" d="M336.9,76l2.8-12.2l36.9,0.5l8.4-35.2h12h0.2l6.7-29H333c-6.8,0-11.7,1.7-14.1,8.4l-20,86.5
		c-1.6,6.6,2.8,9.8,8,10.1c0.3,0,0.6,0,0.9,0h75.5l6.7-29L336.9,76L336.9,76z M347.5,29h30.7l-37.4,28.5L347.5,29z"/>
	<path class="st0" d="M252.5,76l11.2-46.9h45.2l6-29h-67c-7.3,0-10.5,1.7-12.9,8.4l-12.8,54.7L214.9,95c-1,5.7,8.4,10.1,9,10.1h68.7
		l7.3-29h-47.4V76z"/>
	<path class="st0" d="M229.6,10.5c0.9-5.4-2.4-9-7.3-10.1c-1-0.3-76.5-0.4-76.5-0.4c-8.4,0-12.5,3.9-12.9,8.4l-19.5,81L87.6,63.2
		c0,0,14.5-10.6,24-18.5c6.6-5,10.1-11.2,10.1-20c0-16.3-15-24.6-25.1-24.6H18l-6.8,28.5l34.1,0.5L11.2,58.7L0,105.1h35.9l9.4-38.4
		l39.1,38.4h111.7c8.4,0,11.8-3.2,12.9-8.4L229.6,10.5z M46.3,58.2L53.1,29h30.7L46.3,58.2z M180.5,76h-9.6h-21l11.2-46.9h9.9h20.8
		L180.5,76z"/>
</g>
</svg>
